<?xml version="1.0" encoding="utf-8"?>
<!-- Generator: Adobe Illustrator 23.1.1, SVG Export Plug-In . SVG Version: 6.00 Build 0)  -->
<svg version="1.1" id="Calque_1" xmlns="http://www.w3.org/2000/svg" xmlns:xlink="http://www.w3.org/1999/xlink" x="0px" y="0px"
	 viewBox="0 0 1366 768" style="enable-background:new 0 0 1366 768;" xml:space="preserve">
<style type="text/css">
	.st0{fill:#F41F22;}
</style>
<g>
	<g>
		<path class="st0" d="M475.2,656.5c0,0-63,5.3-105.3,4.6c-30.5-0.5-75.7-3.5-118.3-18.3c-21.3-7.4-41.9-17.4-60.3-30.8
			c-18.4-13.5-34.5-30.1-47.6-51.7C110,504.6,90.4,440.4,90.4,376.9c0-11.2,0.6-22.4,1.8-33.4l0-0.1c7.3-66.6,33.9-130.9,77-175
			c18.5-19.1,40.7-34.6,64.4-45.3c23.7-10.7,48.7-16.4,73.1-16.3c7.3,0,14.5,0.5,21.7,1.5l11.9-82.6c-11.2-1.6-22.4-2.4-33.6-2.4
			c-37.4,0-73.9,8.6-107.4,23.7c-33.5,15.1-64.1,36.6-89.9,63.2c-58.8,60.7-90.9,142-100.1,224l0-0.1C7.8,348.4,7,362.7,7,376.9
			c0,80.7,24.5,159,65.4,226.6c19.1,31.6,43.4,56.6,69.7,75.8c39.5,28.8,83.1,44.9,123.2,54c40.2,9.1,77.1,10.3,104.5,11.3
			c35.7,1.2,105.4-5.2,105.4-5.2L475.2,656.5z"/>
		<path class="st0" d="M640,558c-9-25.7-18.2-57.5-30-89.4c-2.3-6.1-4.7-12.2-7.2-18.3c10.3-21.4,17.7-44.4,21.4-68l0-0.1
			c2-13,3.1-26.2,3.1-39.5c0-25.8-3.9-51.9-12.7-76.8c-8.8-24.8-22.6-48.5-42.7-67.9c-26.7-25.5-61.5-38.4-96.4-38.6
			c-18,0-36.3,3.5-53.4,11.4c-17.1,7.8-33,20-45.2,36.3c-8.5,11.3-14.4,23.2-19,34.7c-4.5,11.5-7.6,22.6-10.2,33l81,20.1h0
			c2.1-8.4,4.3-16.1,6.9-22.5c2.5-6.4,5.3-11.5,8.1-15.2c3.6-4.8,7.8-8,13.1-10.5c5.3-2.4,11.8-3.8,18.8-3.8
			c13.7-0.1,28.9,5.7,38.6,15.2c9.3,8.9,16.8,21,22,35.6c5.2,14.6,7.9,31.6,7.9,48.9c0,4.9-0.2,9.9-0.7,14.8
			c-10.5-9.1-21.9-16.4-33.5-21.7c-18.9-8.6-38.3-12.1-56.4-12.1c-21.1,0-40.5,4.6-57.5,12.3c-23.2,10.6-40.3,28.6-51,48.5
			c-10.8,19.9-15.9,41.9-15.9,63.8c0,9.1,0.9,18.2,2.8,27.3l0,0c3,14.5,9.1,27.7,17.1,38.8c12.1,16.6,28,28.4,44.9,36.2
			c17,7.7,35.1,11.6,53.5,11.6c3.9,0,7.9-0.2,11.9-0.6c23-2.2,44.5-9.8,63.3-20.8c6.9-4,13.5-8.6,19.7-13.4
			c6.4,19.4,12.6,39.3,19.1,58.2L640,558z M480.3,468.7c-9.6,5.6-19.2,8.8-29.2,9.8c-1.2,0.1-2.5,0.2-3.9,0.2
			c-8.3,0.1-17.9-2.8-24-6.9c-3.1-2-5.3-4.2-6.9-6.3c-1.5-2.1-2.4-4.1-3-6.7l0,0c-0.7-3.3-1-6.8-1-10.4c0-8.7,2.2-17.6,5.8-24
			c3.6-6.5,7.7-10.3,12.5-12.5c5.8-2.7,14.3-4.8,22.8-4.8c7.4,0,14.8,1.4,21.9,4.6c7.1,3.3,14.2,8.3,21.4,17.1
			c3.8,4.6,7.5,10.1,11.1,16.2C499.2,455.1,489.8,463.2,480.3,468.7z"/>
		<path class="st0" d="M1276.2,470.1c-2.7,21-10.1,33.1-17.6,40.5c-7.7,7.2-16.2,10.4-25.8,10.5c-8,0-16.8-2.5-25.6-8.5
			c-8.8-6-17.7-15.7-24.7-30.9c-6.2-13.5-9.5-22.2-12.2-30c10.7-21.7,18.2-45.2,22-69.2l0-0.1c2-13,3.1-26.2,3.1-39.5
			c0-25.8-3.9-51.9-12.7-76.8c-8.8-24.8-22.6-48.5-42.7-67.9c-26.7-25.5-61.5-38.4-96.4-38.6c-18,0-36.3,3.5-53.4,11.4
			c-17.1,7.8-33,20-45.2,36.3c-8.5,11.3-14.4,23.2-19,34.7c-4.5,11.5-7.7,22.6-10.2,33l81,20.1h0c2.1-8.4,4.3-16.1,6.9-22.5
			c2.5-6.4,5.3-11.5,8.1-15.2c3.6-4.8,7.8-8,13.1-10.5c5.3-2.4,11.8-3.8,18.8-3.8c13.7-0.1,28.8,5.7,38.6,15.2
			c9.3,8.9,16.8,21,22,35.6c5.2,14.6,7.9,31.6,7.9,48.9c0,4.9-0.2,9.9-0.7,14.8c-10.5-9.1-21.9-16.4-33.5-21.7
			c-18.8-8.6-38.3-12.1-56.4-12.1c-21.1,0-40.5,4.6-57.5,12.3c-23.2,10.6-40.3,28.6-51,48.5c-10.8,19.9-15.8,41.9-15.9,63.8
			c0,9.1,0.9,18.2,2.8,27.3l0,0c3,14.5,9.1,27.7,17.1,38.8c12.1,16.6,28,28.4,44.9,36.2c17,7.7,35.1,11.6,53.5,11.6
			c3.9,0,7.9-0.2,11.9-0.6c23-2.2,44.5-9.8,63.3-20.8c7.4-4.3,14.4-9.2,21.1-14.5c12.4,23.1,29.1,41.8,48.4,55.1
			c22,15.1,47.4,23.1,72.8,23.1c30.2,0.1,60.5-11.6,83.4-33.6c23-22,38.2-53.5,42.7-90.3L1276.2,470.1z M1048.5,468.7
			c-9.6,5.6-19.2,8.8-29.2,9.8c-1.2,0.1-2.5,0.2-3.9,0.2c-8.3,0.1-17.9-2.8-24-6.9c-3.1-2-5.3-4.2-6.8-6.3c-1.5-2.1-2.4-4.1-3-6.7
			l0,0c-0.7-3.3-1-6.8-1-10.4c0-8.7,2.2-17.6,5.8-24c3.6-6.5,7.7-10.3,12.5-12.5c5.8-2.7,14.3-4.8,22.8-4.8c7.4,0,14.8,1.4,21.9,4.6
			c7.1,3.3,14.2,8.3,21.4,17.1c5.2,6.4,8.9,11.4,11.7,15.5c-0.2,0.2-0.4,0.5-0.6,0.7C1067.4,455.1,1058,463.2,1048.5,468.7z"/>
		<path class="st0" d="M748,41c-11.8,130.1-19.7,260.5-23.7,391.1c-0.4,11.5-0.6,23.4-0.6,35.5c0,32.1,1.8,66,9.6,99.6
			c7.8,33.5,21.9,67.4,47,96.3c17,19.6,36.6,34.3,56.3,46.3c19.7,12,39.5,21.5,57.9,30.3l35.9-75c-18.2-8.7-35.5-17.1-50.4-26.2
			c-14.9-9.1-27.3-18.8-36.8-29.8c-14.2-16.4-23.2-36.4-28.9-60.7c-5.6-24.1-7.5-52-7.4-80.9c0-10.9,0.2-21.9,0.6-32.9
			c4-128.9,11.8-257.7,23.4-386.2L748,41L748,41z"/>
	</g>
</g>
</svg>
